<?xml version="1.0" encoding="iso-8859-1"?>
<!-- Generator: Adobe Illustrator 19.0.0, SVG Export Plug-In . SVG Version: 6.00 Build 0)  -->
<svg version="1.1" id="Layer_1" xmlns="http://www.w3.org/2000/svg" xmlns:xlink="http://www.w3.org/1999/xlink" x="0px" y="0px"
	 viewBox="0 0 512 512" style="enable-background:new 0 0 512 512;" xml:space="preserve">
<g>
	<g>
		<path d="M412.948,329.031h-7.981v37.855h7.981c10.435,0,16.37-8.083,16.37-19.031
			C429.318,336.602,423.178,329.031,412.948,329.031z"/>
	</g>
</g>
<g>
	<g>
		<path d="M437.157,184.223L301.537,70.905c2.913-6.345,4.55-13.392,4.55-20.818C306.087,22.469,283.618,0,256,0
			c-27.618,0-50.087,22.469-50.087,50.087c0,7.426,1.637,14.474,4.55,20.819L74.843,184.223H0V512h512V184.223H437.157z
			 M96.905,384.892c-20.257,0-34.479-18.927-34.479-37.547c0-17.7,12.994-36.115,35.091-36.115c12.891,0,23.122,6.343,27.726,15.858
			L110,337.931c-2.353-7.059-8.389-9.003-12.891-9.003c-10.026,0-14.426,9.925-14.426,19.031c0,10.129,5.423,19.233,14.631,19.233
			c4.605,0,10.333-2.353,12.38-8.901l16.267,9.719C121.867,378.753,108.465,384.892,96.905,384.892z M233.764,94.95
			c6.705,3.337,14.253,5.224,22.236,5.224c7.984,0,15.531-1.887,22.235-5.224l106.842,89.273H126.921L233.764,94.95z
			 M185.303,384.278h-0.001h-52.894v-72.641h19.951v55.248h32.944V384.278z M220.909,384.892c-20.769,0-34.682-18.314-34.682-37.036
			c0-19.233,14.732-36.626,35.091-36.626c20.872,0,34.58,18.518,34.58,37.035C255.898,367.294,241.37,384.892,220.909,384.892z
			 M289.559,385.199c-10.538,0-22.918-3.376-31.614-8.491l8.595-17.496c0,0,12.174,7.981,23.327,7.981
			c4.296,0,5.831-1.228,5.831-3.172c0-4.195-7.469-5.116-16.165-8.083c-12.789-4.296-18.416-9.719-18.416-20.359
			c0-16.063,12.789-24.555,27.113-24.555c10.537,0,20.666,4.604,27.214,7.877l-8.595,16.472c0,0-10.537-6.65-19.233-6.65
			c-3.478,0-5.831,1.023-5.831,3.582c0,3.784,5.116,4.604,13.505,7.263c13.403,4.196,21.895,8.901,21.895,22.509
			C317.184,379.571,303.065,385.199,289.559,385.199z M376.73,384.278h-51.769v-72.641h50.848v17.394h-30.898v10.23h26.396v16.165
			h-26.396v11.459h31.819V384.278z M412.948,384.278h-27.931v-72.641h27.931c24.144,0,36.626,16.165,36.626,36.217
			C449.574,369.852,435.046,384.278,412.948,384.278z"/>
	</g>
</g>
<g>
	<g>
		<path d="M221.01,328.928c-10.026,0-14.529,9.618-14.529,19.132c0,9.719,4.707,19.131,14.631,19.131
			c10.129,0,14.529-9.822,14.529-19.337C235.641,338.034,230.833,328.928,221.01,328.928z"/>
	</g>
</g>
<g>
</g>
<g>
</g>
<g>
</g>
<g>
</g>
<g>
</g>
<g>
</g>
<g>
</g>
<g>
</g>
<g>
</g>
<g>
</g>
<g>
</g>
<g>
</g>
<g>
</g>
<g>
</g>
<g>
</g>
</svg>
